<svg width="1040" height="530" viewBox="0 0 1040 530" fill="none" xmlns="http://www.w3.org/2000/svg">
<path d="M241.732 49.2175C241.358 46.2641 240.603 43.3717 239.484 40.6129C239.342 40.0912 239.092 39.6049 238.751 39.1851C238.41 38.7652 237.986 38.4209 237.504 38.1741C236.861 38.0069 236.186 37.9993 235.54 38.1522L225.452 39.6956C224.608 39.7342 223.8 40.0483 223.151 40.5899C221.837 41.9716 223.131 44.1965 223.09 46.1027C223.045 48.2462 221.141 49.986 219.075 50.5617C216.967 50.9876 214.793 50.9607 212.696 50.4826L198.591 48.2906C202.745 46.9644 206.442 44.4969 209.261 41.1699C211.117 38.971 212.105 34.8657 209.422 33.8244C208.625 33.6057 207.794 33.539 206.973 33.6277C200.582 33.6774 195.553 28.3417 189.57 26.0945C185.741 24.7492 181.585 24.6491 177.696 25.8085C173.806 26.968 170.383 29.3276 167.916 32.5499L175.43 32.9122C176.137 32.8731 176.838 33.0601 177.431 33.4459C179.078 34.7989 177.031 37.3976 177.263 39.5162C177.564 42.2687 181.219 42.8564 183.974 43.1347C186.729 43.413 190.224 45.6514 188.898 48.0826C175.052 52.852 160.961 38.7594 146.419 40.4942C142.739 40.9333 139.264 42.3791 135.67 43.2883C113.719 48.8421 91.0263 34.0239 68.6024 37.1621C63.6173 38.012 58.7178 39.3041 53.9619 41.0233C50.91 42.0254 47.7267 43.1084 45.5091 45.4324C43.2916 47.7564 42.4477 51.7308 44.5484 54.1609C38.7582 54.6377 32.9293 54.0836 27.3326 52.5244C28.8461 53.3657 30.1052 54.5989 30.9777 56.0946C31.8502 57.5902 32.3039 59.2932 32.2913 61.0247C23.2506 62.4989 14.4493 65.1826 6.12407 69.0035C7.67787 71.5873 9.49271 74.0049 11.5401 76.2182L0.0947266 83.5712C3.96151 84.5455 5.96073 89.8182 3.71206 93.1113C7.72147 91.3276 10.2063 86.7134 14.4937 85.7779C17.3025 85.165 20.1606 86.314 22.8252 87.3934C25.4897 88.4728 28.4184 89.5195 31.1768 88.7094C33.9352 87.8993 35.9698 84.3226 34.217 82.0437C46.0072 78.6038 58.1922 76.7 70.4698 76.3798C71.417 76.2609 72.3775 76.4432 73.2153 76.9009C74.8136 78.0097 74.3931 80.4047 74.307 82.348C74.2209 84.2913 75.7355 86.8453 77.4724 85.9694C75.429 87.7413 77.1758 91.077 79.1362 92.9403C81.0966 94.8036 83.4595 97.3746 82.2593 99.7984C81.9461 100.431 81.4148 100.937 81.1134 101.575C80.2237 103.46 81.6362 105.656 83.3024 106.907C84.9685 108.159 87.0093 109.033 88.1666 110.766C89.324 112.499 88.7984 115.531 86.7289 115.773L80.8465 108.305C78.8368 110.389 77.4589 113 76.8729 115.835C83.1106 120.934 84.0489 131.313 78.8267 137.448C76.158 140.583 72.3629 142.489 69.0507 144.934C65.7384 147.38 62.6735 150.862 62.6818 154.979C62.6962 162.092 62.115 168.7 64.7805 175.295C69.6956 187.455 75.3703 199.295 81.7709 210.743C83.4518 213.749 85.6241 217.044 89.0291 217.561C84.7258 207.085 80.852 196.446 77.4077 185.644C79.651 185.653 82.2435 185.831 83.5587 187.648C84.6477 189.153 84.4137 191.2 84.7521 193.026C85.1825 194.796 85.9002 196.483 86.8766 198.021L107.426 234.625C109.13 237.66 111.084 240.917 114.339 242.146C116.421 242.932 118.829 242.784 120.745 243.915C122.247 244.801 123.258 246.375 124.789 247.21C129.118 249.572 135.138 245.043 139.183 247.862C140.34 248.669 141.076 249.949 142.142 250.872C145.878 254.108 152.007 251.943 156.32 254.357C159.1 255.913 160.541 259.024 162.023 261.843C165.737 268.905 171.747 275.824 179.706 276.386C182.206 276.563 184.76 276.089 187.204 276.645C189.648 277.201 192.054 279.334 191.661 281.809C190.989 286.053 193.086 290.701 192.522 294.96C191.497 302.72 180.49 306.13 179.545 313.9C179.338 315.601 179.662 317.357 179.257 319.022C178.76 321.063 177.228 322.724 176.683 324.753C175.651 328.597 178.405 332.423 181.431 335.009C184.456 337.595 188.065 339.825 189.72 343.446C191.468 347.272 190.609 351.734 191.178 355.903C192.419 365.003 200.279 371.75 208.369 376.1C210.833 377.425 213.479 378.708 215.075 381.007C217.157 384.008 216.949 387.964 217.645 391.55C219.347 400.331 226.74 407.567 226.95 416.51C227.099 422.866 223.566 428.632 221.455 434.629C219.476 440.376 218.76 446.481 219.356 452.529C219.951 458.577 221.844 464.425 224.906 469.675C226.485 472.341 228.373 474.855 229.49 477.745C231.483 482.902 230.836 488.765 232.674 493.98C235.104 500.875 241.78 506.57 241.141 513.852C244.172 520.146 250.864 523.238 257.594 525.112L269.656 528.469C271.965 529.112 274.379 529.76 276.73 529.295C279.082 528.829 281.326 526.876 281.266 524.48C275.351 523.146 269.246 521.727 264.371 518.123C259.495 514.519 256.155 508.1 258.005 502.326C258.862 499.649 260.687 496.557 258.952 494.344C257.959 493.078 256.142 492.747 255.022 491.591C253.274 489.788 253.875 486.76 255.131 484.586C256.388 482.412 258.204 480.47 258.71 478.01C258.966 476.635 258.795 475.214 258.221 473.938C257.646 472.662 256.695 471.592 255.495 470.873C257.731 470.028 259.765 468.723 261.465 467.042C263.035 465.249 263.76 462.485 262.525 460.447C266.192 460.912 270.522 461.14 272.93 458.334C274.852 456.094 274.72 452.745 273.961 449.892C273.201 447.039 271.917 444.268 271.877 441.316C280.337 441.717 288.816 441.43 297.23 440.457C296.013 436.359 293.248 432.897 289.522 430.803C293.332 430.158 296.804 425.596 298.008 421.924C299.212 418.252 298.905 414.251 298.161 410.459C297.875 409.482 297.836 408.45 298.047 407.455C298.476 406.088 299.819 405.253 301.062 404.539L319.976 393.677C321.105 393.111 322.128 392.356 323.001 391.444C324.983 389.116 324.689 385.602 323.674 382.719C322.66 379.835 321.034 377.123 320.643 374.091C319.474 365.024 329.181 358.518 332.457 349.982C333.742 346.633 334.004 342.992 334.253 339.412C334.52 335.568 334.54 331.103 331.589 328.625C328.759 326.251 324.338 326.78 321.377 324.571C318.663 322.546 317.726 318.613 314.761 316.977C312.068 315.492 308.691 316.437 305.696 315.738C300.422 314.508 297.104 308.43 291.718 307.867C288.679 307.55 285.24 309.035 282.749 307.265C280.555 305.706 280.467 302.572 280.049 299.912C279.317 295.779 277.336 291.969 274.372 288.996C271.409 286.023 267.605 284.029 263.474 283.284C260.341 282.781 256.931 282.972 254.265 281.25C251.566 279.507 250.329 276.243 248.209 273.828C244.792 269.937 239.41 268.554 234.369 267.369L213.863 262.548C210.223 261.693 205.531 261.239 203.578 264.428C203 265.642 202.59 266.929 202.361 268.254C201.629 270.651 200.156 272.754 198.154 274.262C196.151 275.769 193.723 276.602 191.217 276.642C189.498 273.711 186.714 271.557 183.445 270.629C181.366 270.05 179.14 269.985 177.157 269.133C176.077 268.606 175.116 267.864 174.333 266.952C173.549 266.041 172.96 264.979 172.602 263.832C172.243 262.685 172.122 261.477 172.246 260.281C172.371 259.086 172.738 257.929 173.325 256.88C174.507 254.775 174.963 252.34 174.624 249.95C174.284 247.559 173.168 245.347 171.446 243.655C167.959 240.524 162.914 239.768 158.238 240.081C157.014 237.409 159.061 234.394 161.268 232.452C163.475 230.51 166.154 228.601 166.635 225.701C167.39 221.14 161.57 217.675 157.151 219.036C152.732 220.396 149.912 224.688 148.047 228.919C146.977 231.347 146.068 233.903 144.38 235.95C142.693 237.997 139.976 239.463 137.405 238.806C133.767 237.876 132.361 233.553 131.556 229.884C130.475 224.962 129.389 219.972 129.615 214.939C129.841 209.905 131.538 204.736 135.25 201.328C141.299 195.775 150.578 196.319 158.742 197.205C156.813 195.032 157.29 191.37 159.353 189.325C160.443 188.357 161.752 187.669 163.167 187.322C164.582 186.974 166.06 186.977 167.474 187.33C169.934 187.842 172.15 189.167 173.765 191.091C176.085 193.92 176.745 197.738 178.498 200.949C180.252 204.159 184.194 206.897 187.421 205.175C190.209 203.687 190.651 199.822 189.958 196.74C189.264 193.657 187.79 190.66 188.042 187.51C188.521 181.501 194.751 177.883 200.248 175.408C205.745 172.933 212.04 169.605 212.911 163.639C212.941 162.471 213.161 161.316 213.563 160.219C214.173 159.25 215.02 158.453 216.025 157.904C232.069 147.301 248.379 136.569 266.717 130.776C267.671 130.474 267.783 130.809 268.755 130.573C270.116 129.787 269.214 127.611 267.91 126.734C266.605 125.858 264.861 125.186 264.53 123.65C264.287 122.52 264.952 121.411 265.125 120.269C265.55 117.462 262.192 114.87 259.584 115.992C258.111 114.042 261.026 111.775 263.383 111.126C270.46 109.178 277.724 107.992 285.053 107.586C285.899 107.452 286.765 107.599 287.519 108.005C288.75 108.858 288.593 110.814 287.72 112.031C286.848 113.248 285.491 114.012 284.404 115.042C283.216 116.199 282.369 117.66 281.955 119.266C281.541 120.871 281.576 122.56 282.056 124.147C285.882 126.093 290.041 128.096 294.279 127.411C298.516 126.725 302.277 121.964 300.285 118.162C298.431 114.621 292.859 113.822 291.901 109.941C290.779 105.397 297.211 101.356 295.763 96.9058C295.128 94.9565 293.185 93.8092 291.694 92.4018C289.934 90.6763 288.736 88.4586 288.259 86.0401C287.782 83.6216 288.047 81.1153 289.02 78.8503C286.592 79.2774 284.097 79.1161 281.744 78.3798C279.391 77.6435 277.249 76.3537 275.497 74.6186C272.263 71.3543 269.682 66.205 265.089 66.3511C260.875 66.4851 257.244 71.4024 253.303 69.9022C252.333 69.5331 251.311 68.782 250.372 69.2221C250.064 69.422 249.805 69.6892 249.616 70.0037C249.427 70.3181 249.311 70.6715 249.278 71.0371C248.277 75.8255 250 81.2812 247.39 85.419C244.55 89.9217 237.981 90.5459 234.538 94.6062C232.669 96.8103 231.945 99.7802 230.227 102.104C228.51 104.428 224.863 105.905 222.802 103.88C223.815 101.797 224.092 99.4321 223.587 97.1716C223.082 94.911 221.825 92.8887 220.022 91.435C218.108 90.1862 216.044 89.1827 213.88 88.4479C211.462 87.4243 209.162 86.1423 207.02 84.6241C205.946 83.9768 205.074 83.0437 204.501 81.9292C204.047 80.5337 204.108 79.0219 204.673 77.6675C205.719 74.6704 207.563 72.0157 210.007 69.9901C212.45 67.9645 215.401 66.645 218.54 66.1738C221.285 65.8004 224.48 65.932 226.296 63.8406C227.258 62.7339 227.762 61.0609 229.157 60.6114C230.049 60.4321 230.976 60.5462 231.798 60.9367L242.043 64.5429C243.186 65.0589 244.445 65.267 245.693 65.1465C246.312 65.0631 246.877 64.7487 247.274 64.2664C247.67 63.7841 247.87 63.1695 247.833 62.546C247.505 60.8446 244.887 60.0282 245.126 58.3121C245.259 57.7559 245.558 57.2533 245.983 56.8707C249.681 52.9353 254.202 49.8661 259.225 47.8828C264.247 45.8995 269.646 45.0511 275.034 45.3984C276.328 47.5222 274.282 50.0372 272.581 51.8502C270.879 53.6633 269.512 56.9027 271.569 58.2983C272.413 58.7287 273.351 58.94 274.297 58.9126C276.82 59.2541 279.271 59.9976 281.558 61.1149C285.099 62.6556 288.571 64.3414 291.975 66.1722C291.675 63.9275 291.388 61.5627 292.238 59.4638C293.089 57.3649 295.507 55.7187 297.62 56.5361C299.655 57.3238 300.699 60.0191 302.868 60.266C305.76 60.5954 306.902 56.3218 305.693 53.6729C304.485 51.024 302.093 48.8059 301.893 45.9013C301.759 43.9417 302.504 41.5114 300.939 40.3248C300.382 39.9686 299.75 39.7468 299.092 39.6772L260.008 32.4851C257.687 32.058 254.334 32.3853 254.231 34.7429C254.174 36.0589 255.349 37.3609 254.829 38.5708C254.273 39.8622 252.447 39.7441 251.118 40.2009C249.055 40.9096 248.019 43.3593 248.218 45.5317C248.58 47.6903 249.416 49.7419 250.666 51.5392C248.123 50.4761 244.274 50.2806 241.732 49.2175Z" fill="#EA4F4F"/>
<path d="M210.547 16.0401C208.082 15.2244 205.427 15.1865 202.94 15.9312C200.453 16.676 198.255 18.1675 196.644 20.2036C196.001 21.0509 195.46 22.219 195.999 23.1365C196.772 24.4519 198.74 23.9323 200.191 23.4618C202.323 22.6998 204.645 22.6444 206.811 23.3039C208.174 23.7717 209.393 24.5984 210.761 25.0485C211.428 25.3272 212.157 25.4192 212.871 25.3148C213.586 25.2104 214.258 24.9135 214.817 24.4559C215.756 23.498 215.815 22.0089 215.817 20.6674C215.882 20.2185 215.846 19.7607 215.712 19.3275C215.577 18.8943 215.348 18.4965 215.04 18.1632C214.493 17.8459 213.877 17.6639 213.245 17.6321C211.829 17.37 210.549 16.6221 209.625 15.5173" fill="#EA4F4F"/>
<path d="M224.64 12.1163C224.088 12.0862 223.538 12.1986 223.043 12.4426C222.547 12.6865 222.123 13.0539 221.81 13.5093C221.498 13.9648 221.307 14.4929 221.258 15.0431C221.209 15.5932 221.302 16.1468 221.528 16.6507C223.222 17.1126 224.991 17.228 226.731 16.9899C227.599 16.8552 228.407 16.4667 229.054 15.8733C229.701 15.28 230.158 14.5083 230.368 13.6557C228.32 14.0284 226.206 13.6247 224.44 12.5235" fill="#3F3D56"/>
<path d="M271.923 5.56318C267.313 6.54335 262.834 8.06466 258.581 10.0955C260.586 10.8662 262.29 12.2607 263.443 14.0734C264.596 15.8861 265.136 18.0212 264.983 20.1639C264.803 20.9865 264.824 21.8404 265.044 22.6533C265.534 23.8412 266.954 24.287 268.202 24.5919C270.445 25.2744 272.787 25.5733 275.129 25.476C276.301 25.4147 277.439 25.0622 278.44 24.4504C279.441 23.8386 280.274 22.9869 280.863 21.9722C281.202 21.0092 281.601 20.0679 282.055 19.1536C285.048 14.5965 293.937 20.1067 297.149 15.7022C298.281 14.1507 298.177 11.8152 299.653 10.5858C300.416 10.0502 301.3 9.71266 302.226 9.60367C308.687 8.32011 315.213 7.39067 321.775 6.81955C324.884 6.54898 328.936 5.43255 328.962 2.31171C317.251 0.0116836 305.108 1.64525 294.421 6.95846C290.571 8.88701 285.478 12.9438 281.769 10.387C280.38 9.42967 280.449 6.85188 278.538 5.77541C276.584 4.67485 273.997 5.12247 271.923 5.56318Z" fill="#EA4F4F"/>
<path d="M310.222 12.7252L315.719 13.7815C314.707 13.7367 313.698 13.9082 312.757 14.2846C311.817 14.6609 310.967 15.2335 310.266 15.9641C309.564 16.6948 309.027 17.5666 308.689 18.5215C308.351 19.4764 308.22 20.4923 308.306 21.5016C313.454 23.2214 319.067 21.5479 324.49 21.7765C329.913 22.0051 336.222 25.8788 335.297 31.227C335.017 32.8442 334.082 34.4602 334.568 36.0278C334.909 37.1266 335.878 37.9062 336.425 38.9181C337.564 41.0268 336.654 43.694 335.214 45.6109C333.775 47.5278 331.841 49.0572 330.578 51.0943C327.436 56.1609 329.221 62.7109 331.092 68.3712C331.633 70.5099 332.633 72.5056 334.021 74.2201C336.794 77.1683 341.313 77.4247 345.36 77.4837C348.305 77.5267 351.679 77.3812 353.542 75.0991C355.974 72.1197 354.273 67.4712 355.874 63.9744C357.328 60.7987 361.033 59.4363 364.389 58.47C370.539 56.6997 376.805 55.1948 382.618 52.5208C389.837 49.2005 396.583 44.0261 404.518 43.5987C406.744 43.4788 409.025 43.7415 411.169 43.1317C413.313 42.5218 415.35 40.6681 415.187 38.4448C415.049 36.5452 413.441 35.1503 412.186 33.7183C410.93 32.2863 409.944 30.0843 411.098 28.5693L431.894 24.6848C430.42 20.6674 429.272 15.3763 432.659 12.7613C433.882 11.8178 435.518 11.4407 436.559 10.3001C438.332 8.35595 437.44 5.00705 435.393 3.3537C433.346 1.70035 430.577 1.31654 427.955 1.0987C418.836 0.341378 409.665 0.8418 400.528 1.34261C382.668 2.32158 364.808 3.30056 346.949 4.27953C343.353 4.4766 339.202 4.17553 335.905 5.40212C333.113 6.44055 331.128 8.3467 327.936 9.01641C322.042 10.2528 315.555 9.41614 310.222 12.7252Z" fill="#EA4F4F"/>
<path d="M408.706 56.1785C408.146 56.0898 407.573 56.2198 407.106 56.5414C406.797 56.8815 406.614 57.3167 406.585 57.7753C406.23 59.7991 406.653 61.8823 407.769 63.6076C408.337 64.454 409.122 65.1328 410.041 65.5736C410.961 66.0143 411.981 66.201 412.997 66.1141C415.472 65.7984 417.297 63.6866 419.572 62.6561C423.08 61.0693 437.975 58.5956 427.671 53.0289C424.12 51.1104 421.826 52.804 419.027 54.0674C415.843 55.6964 412.275 56.4263 408.706 56.1785V56.1785Z" fill="#EA4F4F"/>
<path d="M498.956 9.5826C497.753 10.0741 496.747 10.9503 496.094 12.0742C495.793 12.6449 495.723 13.3094 495.899 13.9301C496.074 14.5509 496.482 15.0804 497.037 15.4092C497.486 15.5722 497.962 15.6477 498.44 15.6319L503.332 15.778C505.411 15.8401 508.007 16.2827 508.565 18.2855C508.98 19.7727 508.052 21.6836 509.172 22.7464C509.652 23.1186 510.23 23.344 510.836 23.3955C512.447 23.8095 514.13 23.8638 515.765 23.5546C519.325 22.5998 517.454 20.4273 518.575 18.4928C520.291 15.533 519.994 17.3247 523.016 15.6284C525.248 14.3756 528.133 12.1031 526.27 8.9101C523.03 3.3576 503.737 7.19726 498.956 9.5826Z" fill="#EA4F4F"/>
<path d="M595.515 6.79106L592.674 7.17015C586.269 8.02499 579.826 8.88769 573.657 10.8114C576.327 11.8673 579.129 12.5549 581.985 12.8551C583.558 12.9322 585.119 13.1542 586.651 13.5183C589.376 14.3295 592.122 16.4244 594.755 15.3513C596.387 14.6859 596.92 12.9862 598.272 12.0855C599.206 11.4635 602.747 10.4567 603.143 9.82891C606.344 4.75355 597.975 6.46276 595.515 6.79106Z" fill="#EA4F4F"/>
<path d="M607.989 19.7021C604.195 21.8238 600.674 24.402 597.506 27.3792C596.171 28.6339 594.808 30.1944 594.929 32.0222C595.09 34.4516 597.678 35.8608 599.92 36.81L609.001 40.6549C610.103 39.1021 609.094 36.9587 607.956 35.4328C606.817 33.9069 605.464 32.1414 605.967 30.3052C606.541 28.2098 609.096 27.4957 611.239 27.1347C614.729 26.5465 624.146 26.5937 623.015 20.968C621.681 14.3392 611.493 17.7434 607.989 19.7021Z" fill="#EA4F4F"/>
<path d="M606.163 394.829C605.298 397.332 605.216 400.281 606.712 402.466C608.39 404.918 611.748 405.832 614.654 405.21C617.547 404.44 620.126 402.782 622.027 400.469C623.766 398.532 625.197 396.338 626.269 393.965C627.765 390.268 628.82 386.407 629.412 382.463L632.232 367.659C632.862 364.35 632.837 354.207 626.756 357.512C625.095 358.415 621.249 365.543 619.508 367.564C616.37 371.208 615.955 374.743 614.303 379.156C612.234 384.685 608.076 389.292 606.163 394.829Z" fill="#EA4F4F"/>
<path d="M927.345 470.587C925.355 469.81 923.424 468.891 921.567 467.836C919.704 472.956 918.714 478.353 918.637 483.801L932.253 476.096C934.301 474.937 936.623 473.326 936.579 470.973C936.597 470.683 936.537 470.393 936.405 470.133C936.272 469.874 936.072 469.655 935.826 469.5C935.524 469.378 935.194 469.34 934.872 469.388C932.853 469.556 931.012 470.55 929.107 471.24C927.203 471.931 924.975 472.296 923.228 471.271" fill="#EA4F4F"/>
<path d="M999.172 475.161C997.677 475.568 996.217 476.092 994.805 476.728C991.681 478.318 989.555 481.337 986.743 483.431C984.053 485.435 980.814 486.535 977.634 487.605C976.698 488.432 977.128 490.097 978.144 490.823C979.235 491.444 980.487 491.726 981.74 491.631C985.043 491.704 988.523 491.736 991.417 490.141C993.047 489.083 994.573 487.872 995.973 486.525C999.356 483.702 1003.42 481.839 1007.44 480.04C1008.9 479.487 1010.26 478.678 1011.44 477.65C1013.96 475.16 1014.14 471.319 1010.5 470.472C1007.55 469.787 1001.98 474.254 999.172 475.161Z" fill="#EA4F4F"/>
<path d="M1030.91 454.43C1031.07 452.717 1030.84 450.989 1030.24 449.377C1029.64 447.765 1028.68 446.31 1027.43 445.124C1027.4 448.551 1027.29 452.203 1025.36 455.037C1023.99 457.057 1021.84 458.421 1020.33 460.345C1018.83 462.268 1018.16 465.318 1019.92 467.006C1021.05 467.864 1022.43 468.338 1023.84 468.356C1027.36 468.77 1031.42 469 1033.89 466.462C1035.23 465.076 1035.89 463.024 1037.53 462.005C1038.14 461.749 1038.69 461.358 1039.13 460.862C1039.8 459.785 1038.73 458.366 1037.52 457.978C1036.3 457.59 1034.97 457.773 1033.75 457.404C1032.53 457.036 1031.42 455.666 1032.04 454.558" fill="#EA4F4F"/>
<path d="M974.503 328.759C972.659 329.208 970.75 329.32 968.867 329.092C965.739 328.516 963.304 326.159 960.779 324.226C954.775 319.654 947.477 317.105 939.933 316.942C933.071 316.813 926.144 318.672 919.404 317.375C919.844 319.824 921.94 321.661 924.176 322.753C926.413 323.845 928.881 324.394 931.128 325.464C934.726 327.194 937.58 330.163 939.167 333.827C939.89 335.517 940.346 337.355 941.442 338.83C943.683 341.845 947.93 342.507 951.678 342.26C956.564 341.939 961.668 340.533 966.215 342.354C969.692 343.747 972.182 346.791 975.086 349.158C977.99 351.525 982.08 353.281 985.414 351.574C981.951 350.452 978.936 348.253 976.811 345.297C974.685 342.342 973.56 338.784 973.6 335.144C976.87 335.444 986.29 335.328 985.783 329.771C985.353 325.062 977.311 328.251 974.503 328.759Z" fill="#EA4F4F"/>
<path d="M931.72 367.076C932.3 363.891 935.476 361.079 934.487 357.997C933.803 355.865 931.331 354.812 929.093 354.76C926.855 354.707 924.656 355.374 922.418 355.437C920.961 355.359 919.501 355.38 918.047 355.499C913.605 356.229 910.867 360.885 906.68 362.541C904.134 363.548 901.275 363.355 898.627 364.051C892.617 365.631 888.814 371.31 884.613 375.889C877.825 383.254 868.982 388.411 859.229 390.692C855.812 391.484 852.139 391.99 849.423 394.209C845.826 397.148 844.94 402.186 844.14 406.762C841.929 419.398 838.551 431.801 834.047 443.812L848.318 445.635C851.031 445.981 853.842 446.32 856.457 445.516C858.356 444.8 860.155 443.841 861.81 442.665C868.165 438.719 875.279 436.151 882.689 435.128C886.426 434.615 890.344 434.521 893.851 435.91C897.358 437.299 900.367 440.449 900.661 444.21C902.177 443.738 903.793 443.687 905.337 444.062C906.88 444.438 908.292 445.225 909.423 446.341C911.657 448.618 913.121 451.539 913.606 454.692C913.982 456.644 914.358 458.983 916.17 459.802C917.648 460.471 919.343 459.751 920.96 459.622C926.446 459.183 930.999 465.58 936.392 464.478C942.175 463.297 943.595 454.635 949.238 452.9C952.478 451.904 957.024 453.115 958.575 450.101C959.943 447.444 957.214 444.378 957.496 441.403C957.842 437.74 962.163 436.185 965.494 434.622C976.978 429.234 982.428 413.777 976.863 402.378C973.566 395.623 967.078 390.307 965.88 382.887C964.958 377.178 967.208 370.521 963.569 366.027C961.717 363.742 958.582 362.48 957.48 359.752C956.787 358.035 957.066 356.087 956.692 354.274C956.319 352.46 954.737 350.563 952.946 351.033C947.747 352.398 946.088 368.458 943.305 372.36C939.073 378.292 930.387 374.384 931.72 367.076Z" fill="#EA4F4F"/>
<path d="M835.625 334.827C833.849 334.329 831.909 333.838 830.207 334.55C828.504 335.262 827.51 337.762 828.876 339.002C839.565 338.585 850.319 338.172 860.916 339.623C873.127 341.296 885.21 345.438 897.474 344.22C890.469 342.153 883.348 340.501 876.148 339.271L864.142 336.978C860.921 336.303 857.667 335.8 854.393 335.471C847.544 334.905 842.36 336.716 835.625 334.827Z" fill="#EA4F4F"/>
<path d="M846.326 297.601C845.438 297.527 844.339 297.464 843.88 298.226C843.442 298.955 843.944 299.918 843.708 300.736C843.386 301.853 841.923 302.138 840.771 301.986C839.619 301.834 838.373 301.47 837.352 302.025C836.834 302.379 836.445 302.891 836.243 303.484C836.041 304.078 836.037 304.721 836.231 305.317C836.649 306.501 837.324 307.577 838.208 308.467C839.717 310.37 841.438 312.095 843.335 313.611C847.009 316.322 851.986 317.629 854.3 321.565C854.626 322.328 855.128 323.004 855.764 323.536C856.875 324.24 858.323 323.705 859.519 323.158L863.711 321.243C864.466 320.971 865.14 320.512 865.671 319.91C866.628 318.611 866.04 316.763 865.236 315.363C864.433 313.963 863.404 312.514 863.576 310.909C863.884 308.048 867.563 306.953 869.076 304.505C870.601 302.037 869.608 298.857 869.784 295.96C869.99 292.574 872.118 288.168 868.694 285.638C865.784 283.487 863.003 285.475 860.914 287.849C856.508 292.856 854.425 298.278 846.326 297.601Z" fill="#EA4F4F"/>
<path d="M871.771 246.998C873.203 249.739 876.186 251.374 877.747 254.043C879.438 256.935 879.246 260.673 881.081 263.476C882.964 266.353 886.753 267.88 887.808 271.152C888.961 274.724 886.346 279.065 888.431 282.186C888.819 282.696 889.31 283.12 889.871 283.431C890.432 283.741 891.052 283.932 891.691 283.991C892.329 284.049 892.973 283.975 893.582 283.772C894.19 283.568 894.75 283.241 895.225 282.81C896.104 281.853 896.574 280.591 896.536 279.292C896.498 277.993 895.953 276.76 895.019 275.857C893.785 274.731 892.012 274.245 890.982 272.93C890.445 272.171 890.087 271.301 889.936 270.384C889.374 267.739 889.464 264.997 890.198 262.395C890.474 261.734 890.544 261.006 890.399 260.305C889.935 258.956 888.109 258.861 886.827 258.235C883.916 256.814 883.987 252.705 884.495 249.506C884.157 251.636 876.569 248.013 875.775 246.807C874.196 244.41 875.055 239.786 874.743 237.138C871.336 238.78 870.022 243.648 871.771 246.998Z" fill="#EA4F4F"/>
<path d="M795.335 289.16C793.934 287.593 791.825 285.953 789.947 286.898C788.515 287.619 788.121 289.601 788.682 291.104C789.366 292.563 790.419 293.818 791.737 294.746C795.65 297.972 799.863 300.885 803.276 304.636C809.385 311.348 812.62 320.406 819.264 326.59C820.599 328.024 822.367 328.981 824.298 329.314C826.233 329.494 828.406 328.256 828.629 326.325C828.812 324.734 827.703 323.31 826.619 322.131C824.039 319.325 821.214 316.741 818.778 313.808C817.652 312.681 816.945 311.205 816.773 309.622C816.761 308.043 818.201 306.39 819.731 306.781C817.87 306.305 816.49 303.205 813.759 302.622C811.476 302.135 810.924 303.548 808.208 302.383C803.027 300.161 798.963 293.222 795.335 289.16Z" fill="#EA4F4F"/>
<path d="M917.067 136.514C915.581 136.072 914.119 135.55 912.69 134.95C908.843 133.796 903.754 136.623 904.266 140.606C904.607 143.253 907.07 145.037 908.43 147.333C910.448 150.737 909.91 155.055 908.85 158.868C908.59 160.048 908.095 161.164 907.394 162.15C906.416 163.19 905.245 164.032 903.948 164.629C898.753 167.542 894.172 171.434 890.458 176.09C890.054 176.52 889.773 177.05 889.643 177.625C889.46 178.97 890.811 179.95 891.576 181.072C893.274 183.563 892.046 186.916 892.214 189.927C892.188 190.352 892.272 190.778 892.456 191.162C892.641 191.546 892.921 191.877 893.269 192.123C894.292 192.643 895.505 191.76 896.06 190.755C897.9 187.421 896.514 182.068 899.967 180.46C900.62 180.156 901.412 180.028 901.847 179.454C902.539 178.544 901.872 177.196 902.222 176.108C902.748 174.475 904.982 174.401 906.697 174.474C909.65 174.597 912.603 174.204 915.421 173.312C916.526 173.049 917.531 172.468 918.309 171.64C919.341 170.352 919.25 168.52 919.043 166.882C918.01 158.717 915.424 150.825 911.424 143.633C914.457 144.02 917.757 144.356 920.374 142.775C921.84 141.89 923.597 139.243 922.871 137.441C921.721 134.592 919.644 136.99 917.067 136.514Z" fill="#EA4F4F"/>
<path d="M528.218 181.42C528.581 183.367 528.937 185.417 528.299 187.292C527.661 189.167 525.654 190.733 523.759 190.159C522.288 189.713 521.439 188.234 520.394 187.106C514.586 180.836 501.482 184.466 497.894 176.709C496.43 173.543 497.425 169.75 496.426 166.408C495.796 164.476 494.542 162.809 492.862 161.667C491.181 160.525 489.169 159.974 487.141 160.1C485.291 160.367 483.491 160.905 481.798 161.695C470.453 166.238 458.544 169.217 446.396 170.549C444.088 170.69 441.804 171.105 439.594 171.787C434.606 173.595 431.198 178.219 428.773 182.938C426.348 187.657 424.557 192.765 421.306 196.957C417.888 201.363 413.099 204.449 408.632 207.786C406.912 208.895 405.479 210.396 404.452 212.167C403.483 214.156 403.538 216.468 403.613 218.678L404.526 245.522C404.644 248.975 404.791 252.551 406.336 255.641C408.266 259.499 412.078 262.026 414.723 265.435C417.422 268.938 418.828 273.265 418.702 277.685C418.646 279.462 418.47 281.564 419.854 282.68C420.696 283.226 421.681 283.51 422.684 283.494L458.996 286.466C465.383 286.989 472.462 287.849 476.632 292.715C478.6 295.012 480.181 298.315 483.196 298.561C484.489 298.667 485.747 298.136 487.041 298.033C490.304 297.775 493.17 300.252 494.979 302.98C497.717 307.137 498.96 312.103 498.504 317.06C498.207 320.172 497.242 323.197 497.034 326.316C496.243 338.184 506.304 348.495 506.499 360.387C506.613 367.382 503.293 373.918 500.055 380.12C505.28 388.036 501.002 398.577 503.082 407.831C505.055 416.611 512.376 423.484 514.2 432.296C515.035 436.33 515.083 441.295 518.641 443.372C520.201 444.133 521.932 444.48 523.665 444.378C534.121 444.502 544.458 442.149 553.83 437.511C558.229 435.328 562.788 432.07 563.556 427.22C564.175 423.309 562.192 418.934 564.21 415.527C566.589 411.512 572.684 411.83 576.184 408.743C581.863 403.734 577.435 394.183 579.736 386.969C581.804 380.485 588.923 377.041 592.452 371.221C593.841 368.718 594.837 366.017 595.407 363.212C597.023 356.508 598.03 349.671 598.413 342.786C598.507 338.602 598.816 334.426 599.338 330.274C603.142 306.637 626.511 290.808 634.098 268.1C634.822 265.932 635.163 263.043 633.233 261.816C632.089 261.27 630.792 261.134 629.559 261.432L612.82 263.542C610.741 263.804 608.537 264.049 606.628 263.185C604.719 262.322 603.35 259.906 604.363 258.072C607.206 252.922 601.358 246.415 598.76 241.137C591.763 226.927 583.43 213.414 573.875 200.78C573.264 200.131 572.881 199.299 572.784 198.412L577.535 198.57C575.931 192.816 573.285 186.519 567.694 184.414C564.544 183.227 561.055 183.638 557.694 183.821C548.067 184.347 537.746 182.894 528.218 181.42Z" fill="#EA4F4F"/>
<path d="M557.702 51.7446C560.221 54.4198 563.044 57.2563 566.689 57.7226C573.127 58.5462 577.756 51.8888 580.703 46.106C580.812 47.5802 581.492 48.9538 582.598 49.9344C583.705 50.9151 585.15 51.4255 586.626 51.3572C588.215 51.0898 589.732 50.4968 591.081 49.6155C603.837 42.6447 618.124 38.9513 632.66 38.867C632.521 37.7659 632.794 36.6521 633.427 35.7405C634.06 34.8289 635.009 34.1841 636.089 33.9306C639.045 33.3447 641.707 35.8999 643.133 38.5541C644.558 41.2084 645.447 44.2849 647.712 46.2717C649.977 48.2585 654.363 48.1719 655.257 45.2949C656.116 42.5328 653.239 40.1773 650.848 38.5489C648.458 36.9204 645.938 33.9065 647.548 31.5033C659.761 28.7998 672.05 26.0861 684.548 25.5487C686.675 25.6228 688.795 25.2575 690.776 24.4758C692.682 23.5405 694.196 21.4175 693.684 19.3573C690.957 19.9984 688.1 19.8127 685.479 18.824C682.858 17.8353 680.59 16.0883 678.966 13.8057C696.307 12.3747 714.751 11.155 730.119 19.3147C731.963 23.2737 722.564 26.5675 725.079 30.1383C725.881 31.2772 727.488 31.4108 728.881 31.4366C739.56 31.6349 750.301 31.8293 760.86 30.217C764.719 29.6278 768.616 28.796 772.49 29.2738C778.943 30.0696 784.462 34.375 790.81 35.7788C793.394 36.3501 796.291 36.3695 798.469 34.8667C800.647 33.3638 801.584 29.9419 799.799 27.9882C805.776 22.1301 815.696 23.582 823.581 26.3866C831.467 29.1912 838.937 33.714 847.283 34.3391C853.267 34.7874 859.335 33.1776 865.249 34.2009C868.965 34.8439 872.424 36.4971 876.056 37.5127C882.925 39.4337 890.192 39.0282 897.324 39.1207C915.522 39.3659 933.521 42.9424 950.43 49.6732C952.63 50.3894 954.645 51.5801 956.334 53.1612C957.907 54.8461 958.709 57.4642 957.652 59.5126L940.179 56.9596C941.825 60.2004 946.084 60.7527 949.543 61.8707C953.002 62.9887 956.588 66.8083 954.509 69.7903C950.762 68.5971 947.366 72.3439 945.473 75.7913C943.58 79.2386 941.273 83.3673 937.345 83.5773C933.829 83.7653 929.575 80.7708 927.283 83.4445C930.45 87.4397 933.162 91.7753 935.368 96.3711C937.633 101.089 939.246 107.034 936.185 111.279C935.704 112.037 934.973 112.603 934.119 112.881C931.62 113.514 929.995 110.456 928.202 108.602C925.943 106.266 922.527 105.605 919.467 104.509C916.408 103.414 913.185 101.259 912.946 98.0181C912.797 96.0018 913.862 94.1275 914.646 92.2639C915.964 89.1228 916.54 85.7203 916.33 82.3204C916.159 79.5851 915.392 76.7398 913.427 74.8287C911.463 72.9176 908.071 72.3113 905.962 74.0617C904.978 74.8784 904.19 76.1849 902.912 76.2337C900.654 76.3201 898.921 72.3837 897.104 73.7274C897.317 75.1592 897.02 76.6203 896.265 77.8553C890.845 82.5697 882.517 80.5752 875.529 82.2406C872.206 83.1916 869.025 84.581 866.069 86.3722C864.963 86.8451 864.022 87.6349 863.364 88.642C862.492 90.3372 863.454 92.5082 864.991 93.6354C866.622 94.6354 868.454 95.2608 870.356 95.4664C878.875 97.08 887.519 99.5777 894.245 105.05C900.972 110.522 905.382 119.568 903.254 127.973L886.453 111.92C887.091 118.66 887.453 125.42 887.54 132.197C887.648 133.521 887.466 134.852 887.007 136.098C885.809 138.743 882.563 139.633 879.718 140.217C878.927 140.367 878.177 140.683 877.516 141.144C876.856 141.605 876.3 142.201 875.887 142.892C875.473 143.583 875.21 144.353 875.115 145.153C875.02 145.953 875.095 146.763 875.336 147.532C876.346 150.826 878.866 153.395 881.174 155.954C883.481 158.513 885.752 161.422 886.054 164.854C886.356 168.287 883.766 172.156 880.329 171.917C877.723 171.736 875.789 169.404 874.678 167.04C873.566 164.676 872.905 162.042 871.235 160.034C866.18 153.954 854.826 156.559 850.297 150.078C849.143 151.387 848.343 152.97 847.972 154.675C847.601 156.381 847.673 158.153 848.18 159.824C850.286 158.505 853.17 159.73 854.753 161.646C856.336 163.563 857.083 166.02 858.326 168.172C860.003 171.076 862.673 173.651 862.907 176.997C862.845 178.262 862.866 179.53 862.971 180.792C863.386 182.819 865.1 184.275 866.288 185.969C869.052 189.912 868.916 195.328 867.134 199.802C865.352 204.275 862.151 208.013 858.981 211.637C853.443 217.967 847.792 224.26 841.227 229.517C839.354 231.017 837.354 232.492 836.188 234.589C835.021 236.686 834.961 239.63 836.754 241.225C835.471 241.289 833.17 241.92 831.888 241.984C831.437 236.838 831.338 231.667 831.594 226.507C826.532 224.076 821.081 230.586 821.734 236.164C822.387 241.742 826.422 246.218 829.294 251.044C831.394 254.573 832.955 258.688 832.254 262.734C831.553 266.781 827.941 270.514 823.849 270.157C817.342 269.589 814.62 260.247 808.175 259.178C807.607 259.044 807.01 259.103 806.479 259.346C805.523 259.871 805.357 261.151 805.303 262.241C805.039 267.59 804.811 273.152 806.899 278.084C809.954 285.299 817.846 291.358 816.19 299.016C807.272 294.871 802.636 284.87 800.53 275.264C798.425 265.658 798.074 255.573 794.301 246.492C791.435 250.164 785.412 247.128 782.794 243.275C780.312 239.622 778.784 235.397 776.376 231.695C773.967 227.993 770.278 224.678 765.867 224.474C761.241 224.261 757.23 227.435 753.702 230.434C750.801 232.9 747.822 235.463 746.127 238.873C743.659 243.833 744.305 249.682 744.186 255.221C744.057 261.21 742.788 267.528 738.706 271.912C734.625 276.297 727.091 277.824 722.589 273.872C720.239 271.81 719.101 268.728 718.087 265.769C713.201 251.509 709.132 236.982 705.899 222.258C705.143 225.619 702.192 229.95 699.373 227.971C698.74 227.438 698.228 226.778 697.869 226.033C692.611 217.121 682.873 211.776 673.034 208.57C663.195 205.365 652.844 203.87 643.114 200.347C637.661 198.373 632.454 195.779 627.593 192.616C626.354 194.437 625.63 196.558 625.499 198.757C625.367 200.955 625.833 203.148 626.847 205.103C629.005 208.924 633.889 211.135 638.07 209.8C640.23 209.109 642.055 207.61 644.198 206.869C646.342 206.128 649.219 206.492 650.157 208.557C651.054 210.534 649.698 212.925 650.37 214.99C651.395 218.133 656.136 218.375 657.794 221.236C659.028 223.365 658.013 226.191 656.252 227.909C654.49 229.626 652.14 230.568 649.99 231.764C643.014 235.643 638.053 242.265 631.956 247.417C625.86 252.57 617.258 256.331 609.992 253.026C611.724 244.256 601.277 237.818 599.355 229.087C598.722 226.213 599.05 223.161 598.147 220.361C596.84 216.306 593.242 213.518 590.291 210.446C586.712 206.679 583.924 202.233 582.091 197.371C580.258 192.508 579.417 187.328 579.619 182.136C579.778 178.528 580.441 174.861 579.619 171.344C578.797 167.827 575.885 164.423 572.277 164.582C564.036 164.946 553.654 165.559 549.33 158.534C547.787 156.027 547.115 152.354 549.347 150.433C550.92 149.078 553.244 149.206 555.311 149.409L573.879 151.236C578.222 151.663 582.916 152.016 586.643 149.745C590.37 147.475 591.985 141.448 588.534 138.777C586.012 136.825 581.495 136.931 580.762 133.828C580.152 131.244 583.012 128.311 581.467 126.152C580.36 124.603 577.869 125.033 576.36 126.194C574.851 127.355 573.756 129.052 572.067 129.931C569.104 131.473 565.563 130.006 562.376 129.008C559.188 128.011 554.914 127.926 553.368 130.887C551.639 134.198 554.902 138.537 553.186 141.855C550.917 146.242 543.233 143.744 540.047 147.518C536.39 151.848 542.535 158.304 541.302 163.835C539.728 164.615 537.978 164.973 536.224 164.875C534.47 164.776 532.772 164.224 531.295 163.273C529.842 162.285 528.684 160.922 527.944 159.328C527.205 157.734 526.911 155.97 527.094 154.223C527.399 151.734 528.696 149.194 527.827 146.843C527.124 144.942 525.215 143.81 523.441 142.829L505.397 132.858C503.722 135.966 505.84 139.819 508.489 142.153C511.137 144.487 514.455 146.245 516.195 149.317C517.296 151.446 517.543 153.914 516.885 156.218C516.227 158.522 514.715 160.488 512.657 161.715C512.399 161.893 512.105 162.013 511.797 162.067C511.488 162.121 511.171 162.107 510.868 162.027C510.58 161.858 510.329 161.633 510.13 161.365C509.931 161.097 509.787 160.792 509.708 160.467C506.524 152.32 501.744 144.287 494.102 140.031C486.46 135.775 475.479 136.65 470.468 143.819C469.277 145.522 468.479 147.463 467.442 149.264C461.933 158.829 450.122 163.359 439.088 163.063C438.008 163.122 436.935 162.87 435.995 162.336C434.211 161.104 434.292 158.491 434.565 156.341L435.723 147.216C435.956 145.384 436.293 143.359 437.743 142.215C439.787 140.603 442.736 141.62 445.339 141.583C447.311 141.491 449.207 140.794 450.771 139.588C452.334 138.381 453.488 136.724 454.077 134.839C454.603 132.936 454.6 130.926 454.067 129.025C453.535 127.123 452.494 125.403 451.057 124.05C449.863 122.929 448.262 121.522 448.892 120.011C449.144 119.593 449.484 119.235 449.888 118.963C450.293 118.69 450.752 118.51 451.234 118.434C455.91 117.076 460.851 116.72 465.449 115.118C470.047 113.516 474.506 110.238 475.595 105.492C475.929 104.037 476.081 102.276 477.387 101.554C478.043 101.278 478.747 101.134 479.458 101.131C481.951 100.777 484.221 99.5016 485.821 97.5573C487.421 95.6129 488.235 93.14 488.102 90.6255C490.306 89.0857 493.393 90.2184 495.525 91.8561C497.657 93.4939 499.539 95.6576 502.133 96.3636C506.967 97.6793 511.639 93.3992 516.649 93.3793C518.756 93.371 520.937 94.1159 522.919 93.4016C524.928 92.6775 526.128 90.6774 527.67 89.1997C529.212 87.722 531.918 86.8207 533.342 88.4125L532.13 79.4305C534.572 80.0474 537.118 80.1348 539.596 79.6867C542.075 79.2385 544.429 78.2653 546.5 76.8324L530.828 71.5371C530.283 71.4008 529.779 71.1317 529.363 70.7535C528.223 69.5266 529.355 67.6147 530.282 66.22C532.498 62.8836 532.87 57.3877 529.225 55.7267C526.737 54.5929 523.882 55.9538 521.494 57.2853L510.055 63.6633C509.692 65.8375 512.351 67.0698 513.998 68.5343C514.995 69.4204 515.701 70.5873 516.022 71.8817C516.344 73.1761 516.266 74.5375 515.8 75.7871C515.333 77.0366 514.5 78.1159 513.409 78.8832C512.318 79.6504 511.021 80.0698 509.687 80.0861C510.44 81.0654 510.964 82.2015 511.218 83.4105C511.473 84.6194 511.452 85.8701 511.158 87.0701L503.462 87.6236C502.598 87.7974 501.701 87.6222 500.966 87.1364C500.143 86.4053 500.254 85.1243 500.063 84.04C499.603 81.4231 497.041 79.589 494.425 79.1187C491.81 78.6484 489.135 79.2512 486.545 79.8464C485.446 80.2421 484.238 80.2143 483.158 79.7683C482.539 79.3659 482.068 78.7718 481.818 78.0768C480.683 75.3241 481.744 72.0885 483.567 69.7344C485.391 67.3803 487.887 65.6594 490.129 63.6996C495.49 58.9958 499.428 52.8865 501.5 46.062C505.737 44.2869 510.123 41.875 514.36 40.0998C520.892 36.7927 528.217 35.3735 535.511 36.0017L549.859 36.2758C554.107 36.3569 558.47 36.4609 562.398 38.0804C566.326 39.6999 569.777 43.2026 570.049 47.4427C570.13 47.9228 570.089 48.4157 569.928 48.8753C569.767 49.3348 569.492 49.746 569.129 50.0702C568.574 50.3729 567.946 50.5145 567.315 50.479C563.353 50.6183 561.664 51.6054 557.702 51.7446Z" fill="#EA4F4F"/>
<path d="M443.339 96.712C443.899 96.1814 444.303 95.5065 444.505 94.7616C444.707 94.0167 444.699 93.2305 444.484 92.4894C443.119 91.963 441.636 91.8279 440.199 92.0992C438.762 92.3704 437.43 93.0374 436.352 94.0249C435.502 94.8847 434.769 95.8531 434.173 96.905C432.288 99.981 430.62 103.655 431.713 107.094C431.802 107.469 431.965 107.822 432.192 108.133C432.42 108.444 432.707 108.707 433.037 108.905C433.527 109.102 434.055 109.185 434.581 109.147C436.658 109.145 438.733 109.017 440.795 108.765C442.061 108.61 443.531 108.252 444.021 107.075C444.664 105.526 443.107 103.774 443.561 102.16C443.86 101.438 444.312 100.79 444.887 100.261C445.172 99.9947 445.391 99.6656 445.527 99.2998C445.663 98.934 445.711 98.5416 445.669 98.1537C445.486 97.3964 444.326 96.9667 443.909 97.6247" fill="#EA4F4F"/>
<path d="M454.109 82.7487C452.264 82.325 450.362 82.2056 448.478 82.3951C448.062 82.3827 447.649 82.4765 447.278 82.6677C446.92 82.9323 446.659 83.3091 446.539 83.7384C446.141 85.0153 446.239 86.3952 446.813 87.6032C447.387 88.8113 448.395 89.7588 449.636 90.2571C450.312 90.4126 450.96 90.673 451.556 91.0288C453.149 92.2644 452.134 94.7899 452.435 96.7829C452.774 99.0208 454.94 100.899 454.543 103.128C454.23 104.883 452.355 106.273 452.657 108.031C452.973 109.871 455.309 110.424 457.17 110.572C458.249 110.761 459.36 110.633 460.368 110.205C461.379 109.514 462.098 108.473 462.386 107.283C463.148 105.015 463.468 102.621 463.329 100.231C463.321 99.1446 463.048 98.0762 462.534 97.1188C461.974 96.3602 461.352 95.6486 460.676 94.9909C457.109 90.8417 460.865 84.6526 454.109 82.7487Z" fill="#EA4F4F"/>
<path opacity="0.8" d="M923.171 407.784C923.171 407.784 649.969 250.962 532.352 280.675C532.352 280.675 283.087 307.5 254.199 366.515C254.199 366.515 174.962 118.9 146.074 110.647" stroke="#2300F5" stroke-width="2" stroke-miterlimit="10"/>
<path opacity="0.8" d="M254.199 366.515C300.007 244.359 740 202.5 740 202.5C681.398 217.357 532.352 280.675 532.352 280.675C532.352 280.675 274.833 93.3137 146.074 110.647C146.074 110.647 901.5 29 923.171 407.784" stroke="#2300F5" stroke-width="2" stroke-miterlimit="10"/>
<path d="M146.074 122.615C152.683 122.615 158.042 117.256 158.042 110.647C158.042 104.037 152.683 98.6786 146.074 98.6786C139.464 98.6786 134.105 104.037 134.105 110.647C134.105 117.256 139.464 122.615 146.074 122.615Z" fill="#2300F5"/>
<path d="M254.199 378.483C260.808 378.483 266.167 373.125 266.167 366.515C266.167 359.905 260.808 354.547 254.199 354.547C247.589 354.547 242.231 359.905 242.231 366.515C242.231 373.125 247.589 378.483 254.199 378.483Z" fill="#2300F5"/>
<path d="M741.968 215.936C748.578 215.936 753.936 210.578 753.936 203.968C753.936 197.358 748.578 192 741.968 192C735.358 192 730 197.358 730 203.968C730 210.578 735.358 215.936 741.968 215.936Z" fill="#2300F5"/>
<path d="M923.171 419.752C929.78 419.752 935.139 414.394 935.139 407.784C935.139 401.174 929.78 395.816 923.171 395.816C916.561 395.816 911.203 401.174 911.203 407.784C911.203 414.394 916.561 419.752 923.171 419.752Z" fill="#2300F5"/>
<path d="M534.968 288.936C541.578 288.936 546.936 283.578 546.936 276.968C546.936 270.358 541.578 265 534.968 265C528.358 265 523 270.358 523 276.968C523 283.578 528.358 288.936 534.968 288.936Z" fill="#2300F5"/>
<path d="M539.5 324C570.152 324 595 299.152 595 268.5C595 237.848 570.152 213 539.5 213C508.848 213 484 237.848 484 268.5C484 299.152 508.848 324 539.5 324Z" fill="#6626B8"/>
<path d="M539.533 272.422C541.285 272.422 542.705 271.002 542.705 269.25C542.705 267.499 541.285 266.079 539.533 266.079C537.782 266.079 536.362 267.499 536.362 269.25C536.362 271.002 537.782 272.422 539.533 272.422Z" fill="white"/>
<path d="M562.597 291.184H516.582C515.741 291.183 514.934 290.817 514.339 290.167C513.744 289.516 513.409 288.634 513.409 287.714V257.355C513.41 256.435 513.744 255.553 514.339 254.903C514.934 254.252 515.741 253.886 516.582 253.885H562.597C563.438 253.886 564.245 254.252 564.84 254.903C565.435 255.553 565.769 256.435 565.77 257.355V287.714C565.77 288.634 565.435 289.516 564.84 290.167C564.245 290.817 563.438 291.183 562.597 291.184ZM516.582 257.355V287.714H562.599L562.597 257.355L516.582 257.355Z" fill="white"/>
<path d="M553.428 257.323H524.885V244.637C524.885 235.449 530.887 228.78 539.157 228.78C547.426 228.78 553.428 235.449 553.428 244.637L553.428 257.323ZM528.057 254.152H550.257V244.637C550.257 237.168 545.692 231.952 539.157 231.952C532.621 231.952 528.057 237.168 528.057 244.637L528.057 254.152Z" fill="white"/>
<path d="M538.514 271.459H540.665V282.935H538.514V271.459Z" fill="white"/>
<path d="M922 449C942.987 449 960 431.987 960 411C960 390.013 942.987 373 922 373C901.013 373 884 390.013 884 411C884 431.987 901.013 449 922 449Z" fill="#2BBAB1"/>
<path d="M922.023 413.685C923.222 413.685 924.194 412.713 924.194 411.514C924.194 410.315 923.222 409.342 922.023 409.342C920.823 409.342 919.851 410.315 919.851 411.514C919.851 412.713 920.823 413.685 922.023 413.685Z" fill="white"/>
<path d="M937.814 426.531H906.308C905.732 426.531 905.18 426.28 904.773 425.835C904.365 425.389 904.136 424.786 904.136 424.156V403.369C904.136 402.739 904.365 402.135 904.773 401.69C905.18 401.245 905.732 400.994 906.308 400.993H937.814C938.39 400.994 938.942 401.245 939.35 401.69C939.757 402.135 939.986 402.739 939.987 403.369V424.156C939.986 424.786 939.757 425.389 939.35 425.835C938.942 426.28 938.39 426.531 937.814 426.531ZM906.308 403.369V424.156H937.816L937.814 403.369L906.308 403.369Z" fill="white"/>
<path d="M931.536 403.347H911.993V394.662C911.993 388.371 916.103 383.804 921.765 383.804C927.427 383.804 931.536 388.371 931.536 394.662L931.536 403.347ZM914.165 401.176H929.365V394.662C929.365 389.548 926.24 385.976 921.765 385.976C917.29 385.976 914.165 389.548 914.165 394.662L914.165 401.176Z" fill="white"/>
<path d="M921.325 413.026H922.798V420.884H921.325V413.026Z" fill="white"/>
<path d="M253.5 393C272.554 393 288 377.554 288 358.5C288 339.446 272.554 324 253.5 324C234.446 324 219 339.446 219 358.5C219 377.554 234.446 393 253.5 393Z" fill="#1FD6FE"/>
<path d="M253.521 360.938C254.609 360.938 255.492 360.055 255.492 358.966C255.492 357.878 254.609 356.995 253.521 356.995C252.432 356.995 251.549 357.878 251.549 358.966C251.549 360.055 252.432 360.938 253.521 360.938Z" fill="white"/>
<path d="M267.858 372.601H239.254C238.731 372.6 238.229 372.373 237.859 371.968C237.49 371.564 237.282 371.016 237.281 370.444V351.572C237.282 351 237.49 350.452 237.859 350.048C238.229 349.643 238.731 349.416 239.254 349.415H267.858C268.381 349.416 268.882 349.643 269.252 350.048C269.622 350.452 269.83 351 269.83 351.572V370.444C269.83 371.016 269.622 371.564 269.252 371.968C268.882 372.373 268.381 372.6 267.858 372.601ZM239.254 351.572V370.444H267.859L267.858 351.572L239.254 351.572Z" fill="white"/>
<path d="M262.158 351.552H244.415V343.666C244.415 337.955 248.146 333.809 253.287 333.809C258.427 333.809 262.158 337.955 262.158 343.666L262.158 351.552ZM246.387 349.581H260.187V343.666C260.187 339.024 257.349 335.781 253.287 335.781C249.224 335.781 246.387 339.024 246.387 343.666L246.387 349.581Z" fill="white"/>
<path d="M252.887 360.339H254.224V367.473H252.887V360.339Z" fill="white"/>
<path d="M732 237C747.464 237 760 224.464 760 209C760 193.536 747.464 181 732 181C716.536 181 704 193.536 704 209C704 224.464 716.536 237 732 237Z" fill="#26B861"/>
<path d="M732.017 210.979C732.9 210.979 733.617 210.262 733.617 209.379C733.617 208.495 732.9 207.779 732.017 207.779C731.133 207.779 730.417 208.495 730.417 209.379C730.417 210.262 731.133 210.979 732.017 210.979Z" fill="white"/>
<path d="M743.653 220.444H720.438C720.013 220.444 719.606 220.259 719.306 219.931C719.006 219.603 718.837 219.158 718.837 218.694V203.377C718.837 202.913 719.006 202.468 719.306 202.14C719.606 201.812 720.013 201.627 720.438 201.627H743.653C744.077 201.627 744.484 201.812 744.784 202.14C745.084 202.468 745.253 202.913 745.254 203.377V218.694C745.253 219.158 745.084 219.603 744.784 219.931C744.484 220.259 744.077 220.444 743.653 220.444ZM720.438 203.377V218.694H743.654L743.653 203.377L720.438 203.377Z" fill="white"/>
<path d="M739.027 203.361H724.627V196.961C724.627 192.326 727.655 188.961 731.827 188.961C735.999 188.961 739.027 192.326 739.027 196.961L739.027 203.361ZM726.227 201.761H737.427V196.961C737.427 193.193 735.124 190.561 731.827 190.561C728.53 190.561 726.227 193.193 726.227 196.961L726.227 201.761Z" fill="white"/>
<path d="M731.502 210.493H732.588V216.283H731.502V210.493Z" fill="white"/>
<path d="M146.5 148C166.106 148 182 132.106 182 112.5C182 92.8939 166.106 77 146.5 77C126.894 77 111 92.8939 111 112.5C111 132.106 126.894 148 146.5 148Z" fill="#268DEC"/>
<path d="M146.521 115.009C147.642 115.009 148.55 114.1 148.55 112.98C148.55 111.86 147.642 110.951 146.521 110.951C145.401 110.951 144.493 111.86 144.493 112.98C144.493 114.1 145.401 115.009 146.521 115.009Z" fill="white"/>
<path d="M161.274 127.01H131.841C131.303 127.009 130.787 126.775 130.406 126.359C130.025 125.943 129.811 125.379 129.811 124.79V105.371C129.812 104.783 130.026 104.219 130.406 103.803C130.787 103.386 131.303 103.152 131.841 103.152H161.274C161.812 103.152 162.328 103.386 162.708 103.803C163.089 104.219 163.303 104.783 163.304 105.371V124.79C163.303 125.379 163.089 125.943 162.708 126.359C162.328 126.775 161.812 127.009 161.274 127.01ZM131.841 105.371V124.79H161.275L161.274 105.371L131.841 105.371Z" fill="white"/>
<path d="M155.409 105.351H137.152V97.2365C137.152 91.3593 140.991 87.0937 146.28 87.0937C151.57 87.0937 155.409 91.3593 155.409 97.2365L155.409 105.351ZM139.18 103.322H153.38V97.2365C153.38 92.459 150.461 89.1223 146.28 89.1223C142.1 89.1223 139.18 92.459 139.18 97.2365L139.18 103.322Z" fill="white"/>
<path d="M145.869 114.392H147.245V121.733H145.869V114.392Z" fill="white"/>
</svg>
